curl_17s
version=1
nRows=210
nColumns=3
inDegrees=yes
endheader
time	r_shoulder_elev	r_elbow_flex
13.1900	20.151471	9.791670
13.2000	20.332728	10.333793
13.2100	20.521229	10.939831
13.2200	20.716156	11.613156
13.2300	20.916671	12.356848
13.2400	21.121922	13.173649
13.2500	21.331052	14.065936
13.2600	21.543205	15.035680
13.2700	21.757533	16.084426
13.2800	21.973202	17.213265
13.2900	22.189400	18.422812
13.3000	22.405344	19.713191
13.3100	22.620282	21.084024
13.3200	22.833505	22.534422
13.3300	23.044350	24.062987
13.3400	23.252202	25.667813
13.3500	23.456506	27.346498
13.3600	23.656766	29.096153
13.3700	23.852548	30.913432
13.3800	24.043489	32.794549
13.3900	24.229294	34.735316
13.4000	24.409741	36.731175
13.4100	24.584681	38.777244
13.4200	24.754037	40.868357
13.4300	24.917809	42.999118
13.4400	25.076066	45.163949
13.4500	25.228950	47.357150
13.4600	25.376671	49.572950
13.4700	25.519503	51.805565
13.4800	25.657781	54.049260
13.4900	25.791898	56.298396
13.5000	25.922297	58.547495
13.5100	26.049469	60.791279
13.5200	26.173941	63.024730
13.5300	26.296276	65.243124
13.5400	26.417061	67.442076
13.5500	26.536903	69.617569
13.5600	26.656419	71.765986
13.5700	26.776228	73.884129
13.5800	26.896946	75.969237
13.5900	27.019173	78.018995
13.6000	27.143490	80.031542
13.6100	27.270444	82.005468
13.6200	27.400549	83.939814
13.6300	27.534268	85.834055
13.6400	27.672015	87.688096
13.6500	27.814139	89.502247
13.6600	27.960925	91.277206
13.6700	28.112588	93.014033
13.6800	28.269264	94.714125
13.6900	28.431013	96.379183
13.7000	28.597813	98.011180
13.7100	28.769562	99.612325
13.7200	28.946082	101.185028
13.7300	29.127115	102.731853
13.7400	29.312333	104.255481
13.7500	29.501344	105.758665
13.7600	29.693693	107.244179
13.7700	29.888878	108.714776
13.7800	30.086354	110.173134
13.7900	30.285545	111.621810
13.8000	30.485853	113.063189
13.8100	30.686673	114.499437
13.8200	30.887400	115.932453
13.8300	31.087442	117.363828
13.8400	31.286235	118.794800
13.8500	31.483245	120.226225
13.8600	31.677988	121.658544
13.8700	31.870031	123.091763
13.8800	32.059006	124.525436
13.8900	32.244614	125.958662
13.9000	32.426631	127.390082
13.9100	32.604910	128.000000
13.9200	32.779388	128.000000
13.9300	32.950083	128.000000
13.9400	33.117096	128.000000
13.9500	33.280604	128.000000
13.9600	33.440863	128.000000
13.9700	33.598195	128.000000
13.9800	33.752985	128.000000
13.9900	33.905672	128.000000
14.0000	34.056739	128.000000
14.0100	34.206702	128.000000
14.0200	34.356101	128.000000
14.0300	34.505485	128.000000
14.0400	34.655403	128.000000
14.0500	34.806390	128.000000
14.0600	34.958956	128.000000
14.0700	35.113574	128.000000
14.0800	35.270672	128.000000
14.0900	35.430620	128.000000
14.1000	35.593724	128.000000
14.1100	35.760218	128.000000
14.1200	35.930258	128.000000
14.1300	36.103923	128.000000
14.1400	36.281206	128.000000
14.1500	36.462020	128.000000
14.1600	36.646197	128.000000
14.1700	36.833493	128.000000
14.1800	37.023592	128.000000
14.1900	37.216115	128.000000
14.2000	37.410625	128.000000
14.2100	37.606641	128.000000
14.2200	37.803645	128.000000
14.2300	38.001093	128.000000
14.2400	38.198428	128.000000
14.2500	38.395091	128.000000
14.2600	38.590531	128.000000
14.2700	38.784217	128.000000
14.2800	38.975649	128.000000
14.2900	39.164361	128.000000
14.3000	39.349938	128.000000
14.3100	39.532017	128.000000
14.3200	39.710292	128.000000
14.3300	39.884521	128.000000
14.3400	40.054527	128.000000
14.3500	40.220200	128.000000
14.3600	40.381496	128.000000
14.3700	40.538435	128.000000
14.3800	40.691099	128.000000
14.3900	40.839628	128.000000
14.4000	40.984214	128.000000
14.4100	41.125097	128.000000
14.4200	41.262556	128.000000
14.4300	41.396902	128.000000
14.4400	41.528470	128.000000
14.4500	41.657614	128.000000
14.4600	41.784693	128.000000
14.4700	41.910067	128.000000
14.4800	42.034089	128.000000
14.4900	42.157094	128.000000
14.5000	42.279395	128.000000
14.5100	42.401273	128.000000
14.5200	42.522975	128.000000
14.5300	42.644701	128.000000
14.5400	42.766607	128.000000
14.5500	42.888793	128.000000
14.5600	43.011301	128.000000
14.5700	43.134112	128.000000
14.5800	43.257140	128.000000
14.5900	43.380233	128.000000
14.6000	43.503164	128.000000
14.6100	43.625632	128.000000
14.6200	43.747262	128.000000
14.6300	43.867599	128.000000
14.6400	43.986109	128.000000
14.6500	44.102182	128.000000
14.6600	44.215126	126.448053
14.6700	44.324175	124.841856
14.6800	44.428487	123.206537
14.6900	44.527147	121.546624
14.7000	44.619176	119.866847
14.7100	44.703533	118.172085
14.7200	44.779121	116.467322
14.7300	44.844800	114.757596
14.7400	44.899392	113.047950
14.7500	44.941695	111.343375
14.7600	44.970493	109.648762
14.7700	44.984571	107.968844
14.7800	44.982731	106.308148
14.7900	44.963803	104.670935
14.8000	44.926663	103.061154
14.8100	44.870254	101.482390
14.8200	44.793594	99.937816
14.8300	44.695800	98.430153
14.8400	44.576098	96.961623
14.8500	44.433843	95.533922
14.8600	44.268530	94.148190
14.8700	44.079803	92.804987
14.8800	43.867471	91.504283
14.8900	43.631512	90.245454
14.9000	43.372079	89.027283
14.9100	43.089502	87.847977
14.9200	42.784288	86.705186
14.9300	42.457119	85.596036
14.9400	42.108843	84.517173
14.9500	41.740466	83.464802
14.9600	41.353141	82.434753
14.9700	40.948155	81.422534
14.9800	40.526907	80.423403
14.9900	40.090897	79.432437
15.0000	39.641702	78.444607
15.0100	39.180960	77.454850
15.0200	38.710345	76.458151
15.0300	38.231550	75.449612
15.0400	37.746266	74.424528
15.0500	37.256166	73.378452
15.0600	36.762883	72.307265
15.0700	36.267998	71.207233
15.0800	35.773023	70.075062
15.0900	35.279392	68.907942
15.1000	34.788446	67.703590
15.1100	34.301431	66.460280
15.1200	33.819486	65.176868
15.1300	33.343639	63.852804
15.1400	32.874809	62.488146
15.1500	32.413803	61.083549
15.1600	31.961316	59.640263
15.1700	31.517935	58.160109
15.1800	31.084147	56.645455
15.1900	30.660339	55.099185
15.2000	30.246810	53.524651
15.2100	29.843776	51.925635
15.2200	29.451380	50.306292
15.2300	29.069702	48.671098
15.2400	28.698766	47.024788
15.2500	28.338553	45.372301
15.2600	27.989004	43.718712
15.2700	27.650036	42.069180
15.2800	27.321541	40.428881
